<svg width="25" height="25" viewBox="0 0 25 25" xmlns="http://www.w3.org/2000/svg">
<path fill-rule="evenodd" clip-rule="evenodd" d="M15.35 12.575C16.0673 12.3768 16.6941 11.9366 17.1239 11.3291C17.5537 10.7216 17.7602 9.98407 17.7083 9.24167V9.15C17.7083 6.24167 15.9 5 12.8333 5H7.5V20.8333H13.2333C16.5 20.8333 18.3333 19.35 18.3333 16.4083V16.3167C18.4251 15.4266 18.164 14.536 17.6061 13.8363C17.0483 13.1367 16.2382 12.6838 15.35 12.575V12.575ZM10.2083 7.1H12.5C14.275 7.1 15.0833 7.75 15.0833 9.25V9.34167C15.0417 10.9583 14.3333 11.6667 12.5 11.6667H10.2083V7.1ZM15.6 16.2083C15.6 17.875 14.7667 18.7083 12.8917 18.7083H10.2083V13.6583H12.7083C14.75 13.6583 15.6 14.4917 15.6 16.1167V16.2083Z"/>
</svg>
