<svg width="25" height="25" viewBox="0 0 25 25" xmlns="http://www.w3.org/2000/svg">
<path fill-rule="evenodd" clip-rule="evenodd" d="M20.9835 8.6165H8.78346C8.52488 8.6165 8.27688 8.51378 8.09404 8.33093C7.91119 8.14808 7.80846 7.90009 7.80846 7.6415C7.80846 7.38292 7.91119 7.13492 8.09404 6.95207C8.27688 6.76923 8.52488 6.6665 8.78346 6.6665H20.9835C21.2421 6.6665 21.49 6.76923 21.6729 6.95207C21.8557 7.13492 21.9585 7.38292 21.9585 7.6415C21.9585 7.90009 21.8557 8.14808 21.6729 8.33093C21.49 8.51378 21.2421 8.6165 20.9835 8.6165ZM8.78346 13.7498H20.9835C21.2421 13.7498 21.49 13.6471 21.6729 13.4643C21.8557 13.2814 21.9585 13.0334 21.9585 12.7748C21.9585 12.5162 21.8557 12.2683 21.6729 12.0854C21.49 11.9026 21.2421 11.7998 20.9835 11.7998H8.78346C8.52488 11.7998 8.27688 11.9026 8.09404 12.0854C7.91119 12.2683 7.80846 12.5162 7.80846 12.7748C7.80846 13.0334 7.91119 13.2814 8.09404 13.4643C8.27688 13.6471 8.52488 13.7498 8.78346 13.7498ZM8.78346 18.8748H20.9835C21.2421 18.8748 21.49 18.7721 21.6729 18.5893C21.8557 18.4064 21.9585 18.1584 21.9585 17.8998C21.9585 17.6412 21.8557 17.3933 21.6729 17.2104C21.49 17.0276 21.2421 16.9248 20.9835 16.9248H8.78346C8.52488 16.9248 8.27688 17.0276 8.09404 17.2104C7.91119 17.3933 7.80846 17.6412 7.80846 17.8998C7.80846 18.1584 7.91119 18.4064 8.09404 18.5893C8.27688 18.7721 8.52488 18.8748 8.78346 18.8748ZM4.3168 18.8748H4.80846C5.06705 18.8748 5.31504 18.7721 5.49789 18.5893C5.68074 18.4064 5.78346 18.1584 5.78346 17.8998C5.78346 17.6412 5.68074 17.3933 5.49789 17.2104C5.31504 17.0276 5.06705 16.9248 4.80846 16.9248H4.3168C4.05821 16.9248 3.81022 17.0276 3.62737 17.2104C3.44452 17.3933 3.3418 17.6412 3.3418 17.8998C3.3418 18.1584 3.44452 18.4064 3.62737 18.5893C3.81022 18.7721 4.05821 18.8748 4.3168 18.8748ZM4.80846 13.7498H4.3168C4.05821 13.7498 3.81022 13.6471 3.62737 13.4643C3.44452 13.2814 3.3418 13.0334 3.3418 12.7748C3.3418 12.5162 3.44452 12.2683 3.62737 12.0854C3.81022 11.9026 4.05821 11.7998 4.3168 11.7998H4.80846C5.06705 11.7998 5.31504 11.9026 5.49789 12.0854C5.68074 12.2683 5.78346 12.5162 5.78346 12.7748C5.78346 13.0334 5.68074 13.2814 5.49789 13.4643C5.31504 13.6471 5.06705 13.7498 4.80846 13.7498ZM4.3168 8.6165H4.80846C5.06705 8.6165 5.31504 8.51378 5.49789 8.33093C5.68074 8.14808 5.78346 7.90009 5.78346 7.6415C5.78346 7.38292 5.68074 7.13492 5.49789 6.95207C5.31504 6.76923 5.06705 6.6665 4.80846 6.6665H4.3168C4.05821 6.6665 3.81022 6.76923 3.62737 6.95207C3.44452 7.13492 3.3418 7.38292 3.3418 7.6415C3.3418 7.90009 3.44452 8.14808 3.62737 8.33093C3.81022 8.51378 4.05821 8.6165 4.3168 8.6165Z"/>
</svg>
