<svg width="25" height="25" viewBox="0 0 25 25" fill="none" xmlns="http://www.w3.org/2000/svg">
<path d="M15.0625 20.3655H22.7807V18.5074H18.7193L20.6226 16.6345C21.8515 15.3662 22.7658 14.157 22.7658 12.756C22.7658 10.8978 21.5069 9.67383 19.1539 9.67383C16.6361 9.67383 15.4522 11.1485 15.3323 13.4343H17.5503C17.6852 12.0186 18.1798 11.4877 19.079 11.4877C19.9033 11.4877 20.3679 11.9891 20.3679 12.8592C20.3679 13.8325 19.7534 14.7173 18.7193 15.9119L15.0625 19.9821V20.3655Z" fill="#A1A1A1"/>
<path d="M2.2168 18.0861H4.54248V12.5222H10.1556V18.0861H12.4987V5H10.1556V10.5639H4.54248V5H2.2168V18.0861Z" fill="#A1A1A1"/>
</svg>
