<svg width="25" height="25" viewBox="0 0 25 25" xmlns="http://www.w3.org/2000/svg">
<path fill-rule="evenodd" clip-rule="evenodd" d="M21.4003 8.40839L17.4253 4.4334C17.3402 4.34773 17.2389 4.27975 17.1273 4.23336C17.0158 4.18697 16.8961 4.16309 16.7753 4.16309C16.6545 4.16309 16.5349 4.18697 16.4234 4.23336C16.3118 4.27975 16.2105 4.34773 16.1253 4.4334L11.667 8.87506C11.5813 8.96025 11.5134 9.06153 11.467 9.17308C11.4206 9.28463 11.3967 9.40425 11.3967 9.52506C11.3967 9.64587 11.4206 9.76549 11.467 9.87704C11.5134 9.98859 11.5813 10.0899 11.667 10.1751L13.0003 11.5084L11.4837 13.0251L10.167 11.6667C10.0825 11.5813 9.98195 11.5135 9.8711 11.4672C9.76024 11.4209 9.6413 11.3971 9.52117 11.3971C9.40104 11.3971 9.2821 11.4209 9.17125 11.4672C9.06039 11.5135 8.95981 11.5813 8.87534 11.6667L4.43367 16.1334C4.34826 16.2179 4.28045 16.3184 4.23417 16.4293C4.18789 16.5402 4.16406 16.6591 4.16406 16.7792C4.16406 16.8994 4.18789 17.0183 4.23417 17.1292C4.28045 17.24 4.34826 17.3406 4.43367 17.4251L8.40867 21.4001C8.58234 21.5702 8.81554 21.6659 9.05867 21.6667C9.29927 21.6655 9.52973 21.5697 9.70034 21.4001L14.167 16.9584C14.2527 16.8732 14.3207 16.7719 14.367 16.6604C14.4134 16.5488 14.4373 16.4292 14.4373 16.3084C14.4373 16.1876 14.4134 16.068 14.367 15.9564C14.3207 15.8449 14.2527 15.7436 14.167 15.6584L12.8337 14.3251L14.3503 12.8084L15.6837 14.1417C15.8578 14.3107 16.091 14.4053 16.3337 14.4053C16.5764 14.4053 16.8095 14.3107 16.9837 14.1417L21.4253 9.70839C21.5103 9.62291 21.5777 9.52149 21.6234 9.40996C21.6692 9.29842 21.6925 9.17895 21.692 9.05839C21.6846 8.81169 21.5797 8.57797 21.4003 8.40839ZM9.05867 19.4501L6.38367 16.7751L9.52534 13.6334L10.2087 14.3251L9.76701 14.7751C9.68159 14.8595 9.61378 14.9601 9.5675 15.071C9.52122 15.1818 9.4974 15.3008 9.4974 15.4209C9.4974 15.541 9.52122 15.66 9.5675 15.7708C9.61378 15.8817 9.68159 15.9823 9.76701 16.0667C9.93976 16.2352 10.1715 16.3295 10.4128 16.3295C10.6542 16.3295 10.8859 16.2352 11.0587 16.0667L11.5087 15.6251L12.192 16.3084L9.05867 19.4501ZM16.3087 12.2001L15.6253 11.5084L16.067 11.0667C16.2394 10.8943 16.3362 10.6605 16.3362 10.4167C16.3362 10.1729 16.2394 9.93912 16.067 9.76673C15.8946 9.59434 15.6608 9.49749 15.417 9.49749C15.1732 9.49749 14.9394 9.59434 14.767 9.76673L14.3253 10.2084L13.6337 9.52506L16.7753 6.38339L19.4503 9.05839L16.3087 12.2001Z"/>
</svg>
