<svg width="25" height="25" viewBox="0 0 25 25" xmlns="http://www.w3.org/2000/svg">
<path fill-rule="evenodd" clip-rule="evenodd" d="M5.99294 19.3081V18.2525H4.25377L4.97842 17.584C5.55815 17.0533 5.95671 16.5428 5.95671 15.8665C5.95671 14.9566 5.28237 14.3081 4.01523 14.3081C2.76118 14.3081 1.97815 14.9365 1.92782 16.1702H3.27548C3.3409 15.584 3.57239 15.3704 3.94176 15.3704C4.31214 15.3704 4.49331 15.5907 4.49331 15.9221C4.49331 16.3349 4.15211 16.7564 3.63781 17.2803L1.82617 19.1079V19.3081H5.99294Z" fill="#A1A1A1"/>
<path fill-rule="evenodd" clip-rule="evenodd" d="M21.6761 19.0177H9.46907C8.93091 19.0177 8.49414 18.5819 8.49414 18.0428C8.49414 17.5037 8.93091 17.0679 9.46907 17.0679H21.6761C22.2153 17.0679 22.651 17.5037 22.651 18.0428C22.651 18.5819 22.2153 19.0177 21.6761 19.0177Z" fill="#A1A1A1"/>
<path fill-rule="evenodd" clip-rule="evenodd" d="M5.16016 11.8081V6.80811H3.8628L2.66016 7.6123V8.80791L3.6571 8.22128V11.8081H5.16016Z" fill="#A1A1A1"/>
<path fill-rule="evenodd" clip-rule="evenodd" d="M21.6761 13.8878H9.46907C8.93091 13.8878 8.49414 13.452 8.49414 12.9129C8.49414 12.3748 8.93091 11.938 9.46907 11.938H21.6761C22.2153 11.938 22.651 12.3748 22.651 12.9129C22.651 13.452 22.2153 13.8878 21.6761 13.8878Z" fill="#A1A1A1"/>
<path fill-rule="evenodd" clip-rule="evenodd" d="M21.6761 8.75796H9.46907C8.93091 8.75796 8.49414 8.32119 8.49414 7.78303C8.49414 7.24487 8.93091 6.80811 9.46907 6.80811H21.6761C22.2153 6.80811 22.651 7.24487 22.651 7.78303C22.651 8.32119 22.2153 8.75796 21.6761 8.75796Z"/>
</svg>
