<svg width="30" height="30" viewBox="0 0 30 30" xmlns="http://www.w3.org/2000/svg">
<path fill-rule="evenodd" clip-rule="evenodd" d="M8.48265 17.6258H6.08435C5.55705 17.6258 5.12952 18.0534 5.12952 18.5807C5.12952 19.108 5.55705 19.5355 6.08435 19.5355H8.48265C9.00996 19.5355 9.43748 19.108 9.43748 18.5807C9.43748 18.0534 9.00996 17.6258 8.48265 17.6258ZM11.4192 20.4116C10.8919 20.4116 10.4644 20.8391 10.4644 21.3664V23.7645C10.4644 24.2918 10.8919 24.7193 11.4192 24.7193C11.9465 24.7193 12.3741 24.2918 12.3741 23.7645V21.3664C12.3741 20.8391 11.9465 20.4116 11.4192 20.4116ZM21.3669 12.3743H23.765C24.2923 12.3743 24.7198 11.9467 24.7198 11.4194C24.7198 10.8921 24.2923 10.4646 23.765 10.4646H21.3669C20.8396 10.4646 20.4121 10.8921 20.4121 11.4194C20.4121 11.9467 20.8396 12.3743 21.3669 12.3743ZM18.5805 9.43769C19.1078 9.43769 19.5353 9.01016 19.5353 8.48286V6.08456C19.5353 5.55749 19.1078 5.12997 18.5805 5.12997C18.0532 5.12997 17.6256 5.55749 17.6256 6.08456V8.48286C17.6256 9.01016 18.0532 9.43769 18.5805 9.43769ZM25.7011 19.3548L20.1643 13.7714C19.9853 13.5922 19.7742 13.5299 19.5355 13.5299L18.0606 13.5678C17.533 13.5678 17.1057 13.9956 17.1057 14.5229C17.106 15.0502 17.5335 15.4775 18.0608 15.4775H19.0469L23.6754 20.0678L20.0297 23.694L15.1216 18.7764C14.7485 18.4038 14.1441 18.399 13.771 18.7719C13.3984 19.1447 13.3984 19.747 13.771 20.1196L19.3546 25.7016C19.541 25.8878 19.7855 25.9806 20.0297 25.9806C20.2739 25.9806 20.5185 25.8868 20.7047 25.7006L25.7009 20.7052C25.8802 20.5261 25.9806 20.2831 25.9806 20.0299C25.9806 19.7768 25.8802 19.5338 25.7011 19.3548ZM12.8947 15.4775C12.8947 16.0045 12.4674 16.4323 11.9399 16.4323L10.4646 16.4703C10.2259 16.4703 10.0154 16.4077 9.83612 16.2289L4.2993 10.6453C4.12027 10.4663 4.01953 10.2233 4.01953 9.97024C4.01953 9.71674 4.12027 9.47397 4.2993 9.29494L9.29545 4.29926C9.66855 3.9264 10.273 3.92592 10.6458 4.29855L16.229 9.88049C16.6021 10.2534 16.6021 10.8556 16.229 11.2285C15.8561 11.6013 15.2514 11.5963 14.8786 11.2237L9.97052 6.30608L6.32473 9.93229L10.9538 14.5226H11.9396C12.4669 14.5226 12.8944 14.9499 12.8947 15.4775Z" />
</svg>
